HIERARCHY
ROOT Hips
{
	OFFSET 0.000000 0.000000 0.000000 
	CHANNELS 6 Xposition Yposition Zposition Zrotation Yrotation Xrotation
	JOINT LeftUpLeg
	{
		OFFSET 1.363060 -1.794630 0.839290 
		CHANNELS 3 Zrotation Yrotation Xrotation
		JOINT LeftLeg
		{
			OFFSET 2.448110 -6.726130 0.000000 
			CHANNELS 3 Zrotation Yrotation Xrotation
			JOINT LeftFoot
			{
				OFFSET 2.562200 -7.039590 0.000000 
				CHANNELS 3 Zrotation Yrotation Xrotation
				JOINT LeftToeBase
				{
					OFFSET 0.157640 -0.433110 2.322550 
					CHANNELS 3 Zrotation Yrotation Xrotation
					End Site
					{
						OFFSET 0.000000 0.000000 0.000000 
					}
				}
			}
		}
	}
	JOINT RightUpLeg
	{
		OFFSET -1.305520 -1.794630 0.839290 
		CHANNELS 3 Zrotation Yrotation Xrotation
		JOINT RightLeg
		{
			OFFSET -2.542530 -6.985550 0.000000 
			CHANNELS 3 Zrotation Yrotation Xrotation
			JOINT RightFoot
			{
				OFFSET -2.568260 -7.056230 0.000000 
				CHANNELS 3 Zrotation Yrotation Xrotation
				JOINT RightToeBase
				{
					OFFSET -0.164730 -0.452590 2.363150 
					CHANNELS 3 Zrotation Yrotation Xrotation
					End Site
					{
						OFFSET 0.000000 0.000000 0.000000 
					}
				}
			}
		}
	}
	JOINT Spine
	{
		OFFSET 0.028270 2.035590 -0.193380 
		CHANNELS 3 Zrotation Yrotation Xrotation
		JOINT Spine1
		{
			OFFSET 0.056720 2.048850 -0.042750 
			CHANNELS 3 Zrotation Yrotation Xrotation
			JOINT Neck1
			{
				OFFSET -0.054170 1.746240 0.172020 
				CHANNELS 3 Zrotation Yrotation Xrotation
				JOINT Head
				{
					OFFSET 0.104070 1.761360 -0.123970 
					CHANNELS 3 Zrotation Yrotation Xrotation
					End Site
					{
						OFFSET 0.000000 0.000000 0.000000 
					}
				}
			}
			JOINT LeftArm
			{
				OFFSET 3.362410 1.200890 -0.311210 
				CHANNELS 3 Zrotation Yrotation Xrotation
				JOINT LeftForeArm
				{
					OFFSET 4.983000 -0.000000 -0.000000 
					CHANNELS 3 Zrotation Yrotation Xrotation
					JOINT LeftHand
					{
						OFFSET 3.483560 -0.000000 -0.000000 
						CHANNELS 3 Zrotation Yrotation Xrotation
						JOINT LeftHandIndex1
						{
							OFFSET 0.715260 -0.000000 -0.000000 
							CHANNELS 3 Zrotation Yrotation Xrotation
							End Site
							{
								OFFSET 0.000000 0.000000 0.000000 
							}
						}
					}
				}
			}
			JOINT RightArm
			{
				OFFSET -3.136600 1.374050 -0.404650 
				CHANNELS 3 Zrotation Yrotation Xrotation
				JOINT RightForeArm
				{
					OFFSET -5.241900 -0.000000 -0.000000 
					CHANNELS 3 Zrotation Yrotation Xrotation
					JOINT RightHand
					{
						OFFSET -3.444170 -0.000000 -0.000000 
						CHANNELS 3 Zrotation Yrotation Xrotation
						JOINT RightHandIndex1
						{
							OFFSET -0.622530 -0.000000 -0.000000 
							CHANNELS 3 Zrotation Yrotation Xrotation
							End Site
							{
								OFFSET 0.000000 0.000000 0.000000 
							}
						}
					}
				}
			}
		}
	}
}
MOTION
Frames: 18
Frame Time: 0.041667
-36.674896 17.383337 -2.035786 -163.965078 77.179755 -148.923067 -45.020535 -41.722896 31.009806 -12.674533 -4.798635 -7.134707 12.803330 2.448596 -67.657299 5.601700 -14.030900 -43.361500 29.087985 17.202293 -19.093383 12.591679 -7.948114 10.922035 1.203462 -18.600631 -18.844401 -0.273400 3.363300 -9.292000 2.817577 -1.062659 -4.849915 6.775096 0.307102 -14.773287 2.871992 8.397750 21.304638 -0.217700 4.356500 18.633200 -91.639000 5.860146 26.504348 23.614347 -37.476759 -8.436695 -0.209323 2.784969 4.978140 -7.125000 0.000000 0.000000 74.353993 -17.066325 34.337167 -20.414630 33.370042 -5.583980 0.962616 -2.757534 -20.513943 7.125000 0.000000 0.000000 
-36.742930 17.380720 -2.109162 -165.014768 77.252658 -150.044314 -45.558626 -41.758404 30.936416 -12.681021 -4.860627 -7.306396 12.876122 2.854733 -68.058011 5.872300 -14.303400 -44.467000 28.325075 16.969534 -19.652752 12.426468 -8.349363 11.744289 1.267423 -18.372605 -18.759054 -0.291600 3.472300 -9.596500 2.743275 -1.121983 -4.825400 6.811560 0.261975 -14.665805 3.427178 7.267545 21.397714 0.154600 3.880000 18.615000 -92.185793 5.712674 25.683049 22.863260 -36.860274 -8.140294 -0.117217 2.817605 5.924474 -7.125000 0.000000 0.000000 74.539165 -17.117558 34.926627 -20.636187 33.642746 -5.641016 1.003334 -2.747370 -20.845414 7.125000 0.000000 0.000000 
-36.808456 17.369599 -2.180467 -166.079308 77.395363 -151.240426 -46.274358 -41.656120 31.045847 -12.707310 -4.990365 -7.542541 12.883552 3.212506 -68.198963 5.915900 -14.346300 -44.643200 27.578210 16.846978 -20.109480 12.263204 -8.725537 12.531248 1.302189 -18.086256 -19.005272 -0.331500 3.700100 -10.234400 2.693857 -1.180808 -4.782046 6.898359 0.225563 -14.539362 3.902750 6.144165 21.488162 0.446900 3.422700 18.663200 -92.114637 6.479184 26.504462 23.527861 -37.482196 -8.445524 -0.163302 2.800941 4.901099 -7.125000 0.000000 0.000000 74.697861 -17.029362 35.423482 -20.866330 33.905327 -5.698816 1.030957 -2.733432 -20.688287 7.125000 0.000000 0.000000 
-36.866350 17.350955 -2.247193 -167.087680 77.590091 -152.408123 -47.040871 -41.448310 31.260228 -12.739254 -5.163662 -7.831910 12.890755 3.323312 -68.271899 5.835500 -14.267000 -44.317900 26.909562 16.727337 -20.649381 12.093281 -9.189723 13.477800 1.334804 -17.908322 -19.361726 -0.391800 4.019000 -11.130200 2.638050 -1.227447 -4.747425 7.048518 0.210327 -14.477332 4.325394 5.077116 21.602939 0.710400 2.994100 18.763400 -92.386155 6.619963 26.143664 22.879038 -36.940391 -8.165029 -0.149412 2.832245 5.079419 -7.125000 0.000000 0.000000 74.833222 -16.912366 35.914055 -21.016282 34.069142 -5.705019 1.046269 -2.708262 -20.426571 7.125000 0.000000 0.000000 
-36.918793 17.329149 -2.308467 -167.703162 77.743142 -153.260684 -47.703092 -41.175983 31.576070 -12.752670 -5.315777 -8.102240 13.065817 2.640613 -68.680277 5.748800 -14.180400 -43.965100 26.489066 16.570969 -21.292602 11.923592 -9.775705 14.644286 1.465844 -18.299818 -18.938574 -0.562700 4.804700 -13.352400 2.581751 -1.256148 -4.715372 7.153197 0.192232 -14.475459 4.734884 4.013689 21.739249 0.978100 2.567400 18.898900 -92.634856 6.948492 25.811928 22.365390 -36.468115 -7.893071 -0.169708 2.856074 5.351740 -7.125000 0.000000 0.000000 74.913902 -16.851367 36.401490 -21.122911 34.169447 -5.678542 1.056827 -2.672400 -20.209505 7.125000 0.000000 0.000000 
-36.967965 17.303964 -2.365816 -168.123304 77.921281 -153.910781 -48.212013 -40.956820 31.615641 -12.777503 -5.336071 -8.146078 13.194450 2.611133 -69.035633 5.828300 -14.259900 -44.288800 26.198925 16.288656 -22.067405 11.729333 -10.462755 16.007402 1.598619 -18.767694 -18.615145 -0.753100 5.542600 -15.462900 2.532354 -1.284452 -4.678220 7.272025 0.174933 -14.460001 5.148323 2.968963 21.841904 1.245700 2.155300 19.021600 -92.859690 7.247530 25.432589 21.750890 -35.902049 -7.588517 -0.179812 2.878828 5.720173 -7.125000 0.000000 0.000000 74.985440 -16.730777 36.668168 -21.243375 34.291845 -5.673020 1.096861 -2.638646 -20.092032 7.125000 0.000000 0.000000 
-37.010814 17.279323 -2.418150 -168.143532 78.164022 -154.104252 -48.511097 -40.798748 31.337120 -12.851868 -5.284646 -8.011053 13.023138 4.437382 -68.817000 6.069700 -14.495600 -45.261000 26.106972 15.808625 -23.054846 11.512701 -11.256222 17.559718 1.653017 -19.021627 -18.930083 -0.779500 5.636900 -15.734500 2.499484 -1.306384 -4.633735 7.480026 0.174408 -14.380604 5.583858 1.974579 21.904790 1.510700 1.783200 19.120800 -93.202160 7.098210 24.261408 20.386835 -34.681797 -7.045388 -0.132812 2.928944 6.812222 -7.125000 0.000000 0.000000 75.116329 -16.622143 36.646691 -21.411503 34.481481 -5.717662 1.120517 -2.622823 -19.735403 7.125000 0.000000 0.000000 
-37.042214 17.256318 -2.465687 -167.599267 78.386625 -153.751103 -48.703940 -40.594184 31.181878 -12.925467 -5.292289 -7.924788 12.718647 5.922561 -68.157643 6.128600 -14.551800 -45.495800 26.288997 15.086507 -24.207351 11.273489 -12.126667 19.275308 1.445400 -18.465170 -20.827364 -0.358900 3.848700 -10.651400 2.494547 -1.330195 -4.586743 7.588658 0.156291 -14.258519 6.078086 1.012141 21.974575 1.812300 1.435000 19.232100 -92.602191 8.377040 25.750583 21.206271 -35.406409 -7.330288 -0.317061 2.891780 5.142849 -7.125000 0.000000 0.000000 75.362952 -16.636872 36.429148 -21.491724 34.602745 -5.759444 1.095344 -2.634905 -19.272415 7.125000 0.000000 0.000000 
-37.057587 17.236802 -2.511261 -167.207635 78.565924 -153.577874 -48.997638 -40.315401 31.282954 -12.961017 -5.347744 -7.948814 12.622889 5.837724 -67.781763 6.240000 -14.657000 -45.937600 26.675231 14.186463 -25.445423 10.966690 -13.056729 21.150452 1.612761 -19.099046 -19.748655 -0.475500 4.422300 -12.267900 2.469478 -1.395248 -4.580240 7.675230 0.130583 -14.321352 6.062961 -0.218580 22.003984 1.655400 0.991900 19.369300 -92.732691 8.486124 24.616578 19.843972 -34.128919 -6.767671 -0.269782 2.921665 6.640429 -7.125000 0.000000 0.000000 75.594423 -16.839773 36.474129 -21.521007 34.677009 -5.797123 1.069270 -2.663822 -19.474388 7.125000 0.000000 0.000000 
-37.061948 17.227426 -2.556617 -167.468479 78.832740 -154.014992 -49.488242 -39.947641 31.492901 -13.008733 -5.461234 -8.100958 12.675863 5.924564 -67.920469 6.325200 -14.736200 -46.273200 26.953394 13.103443 -26.713908 10.603952 -13.939464 23.008253 1.463084 -18.606541 -20.735748 -0.277300 3.387300 -9.358900 2.434820 -1.466094 -4.594997 7.732944 0.115103 -14.430679 5.759698 -1.394799 22.181999 1.264000 0.588100 19.670200 -92.646947 8.647030 23.901237 18.428366 -32.776930 -6.220808 -0.172612 2.933626 8.038203 -7.125000 0.000000 0.000000 75.766885 -17.078778 36.624932 -21.600408 34.774386 -5.841195 1.061898 -2.682475 -20.161713 7.125000 0.000000 0.000000 
-37.055297 17.223173 -2.597721 -167.753632 79.154291 -154.398329 -49.815095 -39.605751 31.474368 -13.050048 -5.464109 -8.141889 12.959558 6.201680 -68.817938 6.748700 -15.116600 -47.917400 27.339542 12.085419 -27.999579 10.305721 -14.687255 24.521623 1.394227 -18.496761 -21.296811 -0.307300 3.564100 -9.853300 2.396500 -1.485310 -4.568053 7.835759 0.116466 -14.304794 5.778736 -2.458615 22.210728 1.150600 0.210000 19.771300 -92.539674 8.600500 23.193964 17.149985 -31.577058 -5.808633 -0.065777 2.949936 9.663923 -7.125000 0.000000 0.000000 75.948663 -17.214037 36.458215 -21.638141 34.849315 -5.868124 1.086977 -2.690929 -20.725812 7.125000 0.000000 0.000000 
-37.035999 17.219248 -2.634681 -167.567270 79.437533 -154.268320 -49.959716 -39.379895 31.200579 -13.083918 -5.353577 -7.879460 12.755313 6.244893 -68.098464 6.566400 -14.955600 -47.214500 27.895710 11.405317 -29.092024 10.160248 -15.172944 25.374333 1.426551 -18.529087 -20.498391 -0.624700 5.057600 -14.072900 2.354651 -1.480080 -4.534255 7.917656 0.117487 -14.137383 6.388090 -2.945247 22.249650 1.653400 0.009700 19.863700 -92.479213 8.248297 22.228573 15.807128 -30.295605 -5.420843 0.035564 2.975232 11.559201 -7.125000 0.000000 0.000000 76.138011 -17.442080 36.254903 -21.619685 34.889029 -5.884138 1.100323 -2.706689 -20.904171 7.125000 0.000000 0.000000 
-37.007870 17.217831 -2.672405 -167.539131 79.669621 -154.284501 -50.181130 -39.156702 31.030828 -13.119807 -5.247948 -7.644356 12.673174 6.410765 -67.763435 6.506400 -14.901700 -46.981600 28.404391 10.994007 -29.972835 10.141636 -15.383784 25.577883 1.393560 -17.951692 -18.807952 -1.097900 6.658100 -18.706300 2.308476 -1.492610 -4.530184 7.890373 0.104776 -14.118531 6.723441 -3.553111 22.251924 1.905000 -0.237200 19.951300 -92.338320 8.122804 21.483383 14.779756 -29.269742 -5.130211 0.128937 2.979439 12.882995 -7.125000 0.000000 0.000000 76.353917 -17.744218 35.998387 -21.479569 34.797942 -5.848310 1.084768 -2.725348 -20.711914 7.125000 0.000000 0.000000 
-36.968401 17.220339 -2.711002 -167.993973 79.857018 -154.784931 -50.543799 -38.941567 30.997627 -13.211155 -5.182157 -7.501240 12.752888 8.672646 -68.405455 7.347100 -15.617300 -50.175200 28.755658 10.594439 -30.669618 10.209275 -15.366830 25.314451 0.986526 -15.943911 -19.406059 -0.826800 5.801200 -16.208700 2.256691 -1.537598 -4.545058 7.817899 0.079449 -14.175258 6.755184 -4.210715 22.271304 1.879100 -0.487700 20.038300 -92.309629 8.114644 20.350002 13.921203 -28.375524 -4.886319 0.254095 2.965186 14.089674 -7.125000 0.000000 0.000000 76.521233 -18.082655 35.801090 -21.292191 34.636834 -5.777367 1.095498 -2.731087 -20.539873 7.125000 0.000000 0.000000 
-36.917812 17.226662 -2.743274 -167.948784 79.947559 -154.778437 -50.747500 -38.810451 30.994536 -13.306372 -5.160379 -7.344814 12.484042 11.183667 -68.144894 7.872100 -16.024400 -52.100700 29.206729 10.337467 -31.289796 10.386794 -15.220758 24.694695 0.731320 -14.600506 -19.560144 -0.696800 5.336100 -14.869700 2.218891 -1.590950 -4.571150 7.744365 0.050764 -14.293844 6.856914 -4.672753 22.248588 1.930400 -0.669900 20.049500 -92.299730 8.006302 19.168159 13.212494 -27.606616 -4.685030 0.337143 2.953908 15.131431 -7.125000 0.000000 0.000000 76.588800 -18.535184 35.832529 -21.195980 34.537590 -5.728086 1.119130 -2.725637 -20.352471 7.125000 0.000000 0.000000 
-36.861880 17.232332 -2.768024 -167.001826 79.922423 -153.831525 -50.672119 -38.719072 31.063089 -13.354629 -5.141119 -7.225819 12.348163 12.363898 -68.008490 8.158300 -16.234500 -53.130900 29.776783 10.351314 -31.935078 10.681622 -15.003551 23.779886 0.658538 -14.210963 -19.153868 -0.910700 6.080900 -17.019200 2.205341 -1.618412 -4.585472 7.667006 0.018932 -14.389268 7.081408 -4.997034 22.153423 2.104400 -0.820100 20.017600 -92.252283 7.939836 18.188510 12.886893 -27.217738 -4.606896 0.362084 2.949922 15.793689 -7.125000 0.000000 0.000000 76.634596 -18.907110 35.710782 -21.061564 34.398045 -5.665398 1.113004 -2.720427 -19.749175 7.125000 0.000000 0.000000 
-36.797989 17.234730 -2.792773 -166.300496 79.873358 -153.081356 -50.643713 -38.656679 31.096585 -13.379169 -5.063667 -7.033478 12.310120 12.860792 -67.938155 8.327500 -16.354900 -53.733800 30.084903 10.722475 -32.390544 11.085728 -14.592233 22.381404 0.499973 -13.855064 -20.325298 -1.049000 6.513100 -18.280800 2.191698 -1.642186 -4.599119 7.569717 -0.014802 -14.469116 7.273265 -5.230865 22.055699 2.268100 -0.945800 20.008800 -92.178152 7.874430 17.464231 12.751005 -27.036683 -4.604259 0.399777 2.943408 15.874433 -7.125000 0.000000 0.000000 76.701085 -19.210297 35.487714 -20.858874 34.206401 -5.595177 1.091606 -2.728810 -19.322034 7.125000 0.000000 0.000000 
-36.721015 17.231023 -2.815778 -166.144244 79.880302 -152.821805 -50.692907 -38.612754 31.003161 -13.417045 -4.938884 -6.757424 12.226254 13.956088 -67.900763 8.590900 -16.537100 -54.664200 30.068346 11.607969 -32.539918 11.589131 -13.920396 20.382688 0.430324 -13.986179 -21.421798 -1.077100 6.597000 -18.526700 2.178215 -1.646727 -4.595661 7.500967 -0.034065 -14.428188 7.304396 -5.453075 21.900481 2.283100 -1.072000 19.950800 -92.026794 7.685083 17.351697 12.729628 -27.014893 -4.651534 0.421634 2.945844 15.251388 -7.125000 0.000000 0.000000 76.734650 -19.515593 35.361614 -20.717078 34.080640 -5.562905 1.089938 -2.744862 -19.566089 7.125000 0.000000 0.000000 
